<svg id="aidandang-logo" xmlns="http://www.w3.org/2000/svg" viewBox="0 0 252.16 252.16"><defs><style>.cls-1{fill:#5D8C87;}</style></defs><path class="cls-1" d="M212.59,141.25q9.39,12.24,15.34,40.14-6.87,34.25-15.74,47t-24.33,12.76q-17.06,0-26-14.61T153,184.3q0-25.53,9.45-40.4T188.13,129Q203.21,129,212.59,141.25Z" transform="translate(-74.61 -59.63)"/><path class="cls-1" d="M200.69,59.63A126.08,126.08,0,1,0,326.77,185.71,126.08,126.08,0,0,0,200.69,59.63Zm78.16,159.05q0,15.07-4.23,22.42a13.88,13.88,0,0,1-12.83,7.34,17,17,0,0,1-14.42-7.14q-5.28-7.14-10.18-27.25Q226.48,232.17,214,240.3t-29.43,8.14q-25.78,0-42.91-18.32t-17.13-46.35q0-25.26,17.59-44.17t41.66-18.91q18.92,0,30.88,11.1t16.86,33.33l9.66-40.73h25.26L256.1,164.86q-2.78,10.57-6.35,20.63T242,204.66q4.5,11.78,9.65,17.66t11,5.88a9.39,9.39,0,0,0,7.34-3.37,16.92,16.92,0,0,0,3.77-9.06h5.16Z" transform="translate(-74.61 -59.63)"/></svg>